<svg xmlns="http://www.w3.org/2000/svg" xmlns:xlink="http://www.w3.org/1999/xlink" version="1.1" x="0px" y="0px" viewBox="0 0 100 125" style="enable-background:new 0 0 100 100;" xml:space="preserve"><path d="M49.99403,2.5180745c-2.6515465,0.0017664-5.2985764,0.2155061-7.9164391,0.6403339  c-9.2086372,1.54831-17.7563725,5.7790565-24.5709953,12.1638527C10.6915169,21.7061501,5.9125323,29.9599457,3.7679083,39.0476151  c-2.144486,9.0892601-1.5588918,18.6087914,1.6825502,27.3656769c0.597939,1.6286621,1.6816673,3.0347977,3.1053457,4.0267258  c1.4237719,0.9918594,3.1186867,1.5218124,4.8533754,1.5182648c2.213378,0.0035324,4.3349133-0.8814545,5.8903008-2.4561996  c2.0014019-1.9881516,4.9099026-2.7609863,7.6347141-2.0279083c2.7248077,0.7330856,4.8524723,2.8607025,5.5855083,5.5855103  c0.7330818,2.7248077-0.0397453,5.6332169-2.0287819,7.6347122c-2.024353,2.0376053-2.8704243,4.9664307-2.2451706,7.7696991  c0.6253223,2.8032761,2.6364002,5.0944061,5.3347588,6.0793228c5.2524567,1.9484024,10.811512,2.9439087,16.4139786,2.9384842  c2.8783379-0.0026474,5.7516937-0.2570114,8.5859413-0.7604675c11.6569214-2.1391754,22.092186-8.5601654,29.2581787-18.0010223  c7.1648636-9.4399414,10.5404129-21.2187347,9.4654922-33.0205879c-1.0757675-11.802536-6.5261078-22.775713-15.2798233-30.7663155  C73.2714691,6.943809,61.846981,2.5152869,49.9940224,2.5189044L49.99403,2.5180745z M23.6141834,55.2755127  c-1.3990345,0-2.7406387-0.555542-3.7298546-1.5447578c-0.990099-0.9892159-1.5456429-2.3316154-1.5456429-3.7307587  s0.5555439-2.7415428,1.5456429-3.7307587c0.9892159-0.9892159,2.3309345-1.5447578,3.7298546-1.5447578  c1.3999176,0,2.7415409,0.555542,3.7307568,1.5447578s1.545639,2.3316154,1.545639,3.7307587  s-0.556427,2.7415428-1.5456429,3.7307587s-2.3309326,1.5447578-3.7307568,1.5447578H23.6141834z M32.8465614,36.809845  l0.0008812,0.000885c-1.7496815,0-3.4268703-0.6950989-4.6634445-1.9316292  c-1.2365303-1.2374115-1.9316292-2.9147396-1.9316292-4.6634464s0.6950989-3.4259682,1.9316292-4.6634464  c1.2365322-1.2365303,2.9138317-1.9316292,4.6634445-1.9316292c1.7488022,0,3.4259682,0.6950989,4.6625443,1.9316292  c1.2374115,1.2374134,1.9316292,2.9147396,1.9316292,4.6634464s-0.6942177,3.4268703-1.9316292,4.6634464  c-1.2365341,1.2365303-2.9138336,1.9316292-4.6634483,1.9316292L32.8465614,36.809845z M47.3544617,24.9392529h0.0008812  c0-1.7487984,0.6950951-3.4259663,1.9316292-4.6625423c1.2365341-1.2374134,2.9138336-1.9316273,4.6634483-1.9316273  c1.7487984,0,3.4259644,0.6942139,4.6625404,1.9316273c1.2374115,1.2365303,1.9316292,2.9138336,1.9316292,4.6625423  c0,1.7496796-0.6942177,3.4268723-1.9316292,4.6634483c-1.2365341,1.2365303-2.9138336,1.9316273-4.6625404,1.9316273  c-1.7496834,0-3.4268723-0.695097-4.6634483-1.9316273c-1.2374115-1.2365303-1.9316292-2.9138336-1.9316292-4.6634483H47.3544617z   M67.1396866,73.7420883c-2.4482803,0-4.7968521-0.9724426-6.5288277-2.7044601  c-1.7311134-1.7311172-2.7035561-4.0796432-2.7035561-6.5279236c0-2.4491882,0.9724426-4.7977562,2.7035561-6.5288277  c1.7320175-1.7311134,4.0805473-2.7044601,6.5288277-2.7044601c2.4491882,0,4.7968445,0.97332,6.5288239,2.7044601  c1.7311172,1.7320175,2.7035599,4.0805435,2.7035599,6.5288277c0,2.4482803-0.9724426,4.7968445-2.7044601,6.5279236  C71.9364929,72.7696457,69.5879669,73.7420883,67.1396866,73.7420883z M73.7347565,47.3622398  c-2.0994339,0-4.1124191-0.8337669-5.5961304-2.3175926c-1.4838257-1.4847069-2.3175964-3.4976387-2.3175964-5.5961342  s0.8337708-4.1115227,2.3175964-5.596138c1.4838181-1.4838219,3.4967346-2.3175907,5.5961304-2.3175907  c2.0985413,0,4.1115265,0.8337688,5.5952377,2.3175907c1.4847031,1.4847069,2.3184967,3.4976425,2.3184967,5.596138  s-0.8337708,4.1115227-2.3184967,5.5961342C77.8461685,46.5284729,75.8332596,47.3622398,73.7347565,47.3622398z"/></svg>