<svg xmlns="http://www.w3.org/2000/svg" xmlns:xlink="http://www.w3.org/1999/xlink" viewBox="0 0 100 125" version="1.1" xml:space="preserve" style="" x="0px" y="0px" fill-rule="evenodd" clip-rule="evenodd" stroke-linejoin="round" stroke-miterlimit="1.41421"><g transform="matrix(1,0,0,1,-600,0)"><rect x="600" y="0" width="100" height="100" style="" fill="none"/><clipPath id="a"><rect x="600" y="0" width="100" height="100"/></clipPath><g clip-path="url(#a)"><g transform="matrix(-2.08333,0,0,2.15462,2095.83,-60.6146)"><path d="M718,35.868C718,33.733 716.208,32 714,32L674,32C671.792,32 670,33.733 670,35.868C670,38.002 671.792,39.735 674,39.735L714,39.735C716.208,39.735 718,38.002 718,35.868Z"/></g><g transform="matrix(-2.07759,0,0,2.15462,2091.98,-27.2813)"><path d="M718,35.868C718,33.733 716.203,32 713.989,32L674.011,32C671.797,32 670,33.733 670,35.868C670,38.002 671.797,39.735 674.011,39.735L713.989,39.735C716.203,39.735 718,38.002 718,35.868Z"/></g><g transform="matrix(-2.07759,0,0,2.15462,2091.98,6.05206)"><path d="M718,35.868C718,33.733 716.203,32 713.989,32L674.011,32C671.797,32 670,33.733 670,35.868C670,38.002 671.797,39.735 674.011,39.735L713.989,39.735C716.203,39.735 718,38.002 718,35.868Z"/></g></g></g></svg>