<?xml version="1.0" encoding="UTF-8"?>
<svg version="1.1" xmlns="http://www.w3.org/2000/svg" width="512" height="512">
<path d="M0 0 C55.1039065 -1.50634291 109.18444593 14.376181 152.47119141 49.078125 C153.45603516 49.85929687 154.44087891 50.64046875 155.45556641 51.4453125 C170.07028374 63.28589744 183.46473758 76.81584237 194.47119141 92.078125 C195.23431641 93.1196875 195.99744141 94.16125 196.78369141 95.234375 C231.86229991 144.44186748 246.61838248 206.33081577 236.98242188 266.11035156 C234.56318463 280.11555163 231.31082154 293.71139336 226.47119141 307.078125 C226.18405273 307.87492676 225.89691406 308.67172852 225.60107422 309.49267578 C216.74235966 333.66020681 204.20782285 356.44950209 187.47119141 376.078125 C186.5126395 377.22117091 185.55432444 378.36441546 184.59619141 379.5078125 C176.81725961 388.73823899 168.74113195 397.31828768 159.47119141 405.078125 C158.97296875 405.50077637 158.47474609 405.92342773 157.96142578 406.35888672 C111.13874187 445.87756206 50.59079526 463.8771691 -10.22485352 459.66699219 C-56.40134764 455.70318926 -100.98065514 437.8178908 -136.52880859 408.078125 C-137.12564453 407.58280273 -137.72248047 407.08748047 -138.33740234 406.57714844 C-148.56109357 398.06641182 -157.97121909 389.29865173 -166.29052734 378.8671875 C-167.71985344 377.08614242 -169.17842816 375.32792681 -170.67333984 373.6015625 C-207.65869707 330.55193949 -223.94405309 269.65149726 -220.31054688 213.71826172 C-217.73749132 183.15361766 -209.9253387 154.63465621 -196.52880859 127.078125 C-196.20299805 126.40587891 -195.8771875 125.73363281 -195.54150391 125.04101562 C-188.3280525 110.37491029 -179.12652821 96.51044065 -168.52880859 84.078125 C-167.5819287 82.94683659 -166.63533607 81.81530771 -165.68896484 80.68359375 C-157.56947853 71.03159161 -149.20611665 62.20248638 -139.31787109 54.31640625 C-137.53682601 52.88708015 -135.7786104 51.42850543 -134.05224609 49.93359375 C-97.92264634 18.89345774 -47.32057065 1.46192147 0 0 Z " fill="#027EA2" transform="translate(246.52880859375,25.921875)"/>
<path d="M0 0 C1.00249283 0.00089127 1.00249283 0.00089127 2.02523804 0.00180054 C52.30336528 0.1727751 99.95178013 18.4897506 136.5 53.25 C137.05413574 53.77158691 137.60827148 54.29317383 138.17919922 54.83056641 C151.75625524 67.68516688 163.37581746 81.87411947 172.5 98.25 C173.13784424 99.38646973 173.13784424 99.38646973 173.78857422 100.54589844 C182.22699912 115.72147671 188.67261299 131.00116287 193.25 147.75 C193.53012939 148.76054443 193.53012939 148.76054443 193.81591797 149.79150391 C197.70370649 164.91999636 199.02993912 180.05467437 198.875 195.625 C198.87001495 196.47539856 198.86502991 197.32579712 198.8598938 198.20196533 C198.60819632 234.93086649 189.09262296 272.36106556 168.5 303.25 C167.84 303.25 167.18 303.25 166.5 303.25 C166.13390625 302.50878906 165.7678125 301.76757812 165.390625 301.00390625 C157.99080077 286.60948625 148.63354688 273.96645509 137.5 262.25 C136.28472745 260.83928156 135.07579395 259.42306281 133.875 258 C115.59258 237.09371417 89.33258493 224.47568908 64.5 213.25 C69.11941341 208.60701816 69.11941341 208.60701816 71.203125 206.65234375 C83.45520499 195.04999528 92.22693145 180.17830363 97.5 164.25 C97.89445312 163.14140625 98.28890625 162.0328125 98.6953125 160.890625 C101.47663835 151.82700369 101.88635948 143.08780085 101.9375 133.625 C101.9475708 132.42230469 101.9576416 131.21960938 101.96801758 129.98046875 C101.70425047 102.53372418 89.77669548 79.19928621 71.13671875 59.7890625 C49.55538854 39.11451087 22.35990458 32.64618973 -6.703125 32.9765625 C-32.43114464 33.69320066 -56.14076548 47.03446491 -73.625 65.4375 C-93.13725047 87.70187454 -99.76930089 112.78018209 -98.7175293 141.95654297 C-98.13003093 150.85143962 -96.62306016 159.2949328 -93.4375 167.625 C-93.13440918 168.42808594 -92.83131836 169.23117188 -92.51904297 170.05859375 C-85.9114038 186.87925058 -75.27239604 200.60528101 -61.5 212.25 C-62.82284491 214.89568983 -63.98045502 215.04017569 -66.69921875 216.1328125 C-68.00777832 216.66998901 -68.00777832 216.66998901 -69.34277344 217.21801758 C-70.2815332 217.59982178 -71.22029297 217.98162598 -72.1875 218.375 C-91.4248967 226.44234757 -108.81313061 237.36385158 -123.9296875 251.80078125 C-126.11974901 253.88766357 -128.35651049 255.82579102 -130.6875 257.75 C-135.60848625 262.03044465 -139.51319714 267.11341952 -143.5 272.25 C-144.25539062 273.21292969 -145.01078125 274.17585938 -145.7890625 275.16796875 C-150.5101864 281.30867458 -154.70765063 287.60367968 -158.67578125 294.2421875 C-160.53616747 297.30963373 -162.49100463 300.27863819 -164.5 303.25 C-193.67332057 269.91879963 -198.00544608 216.02061818 -195.2890625 173.98583984 C-194.763841 168.30887183 -193.79915512 162.79796431 -192.5 157.25 C-192.30132324 156.38487793 -192.10264648 155.51975586 -191.89794922 154.62841797 C-183.97472618 121.11348126 -168.35203369 90.95645741 -145.5 65.25 C-144.63117188 64.25871094 -143.76234375 63.26742187 -142.8671875 62.24609375 C-138.04184941 56.82312205 -133.13348556 51.82419768 -127.5 47.25 C-126.52933594 46.44175781 -125.55867188 45.63351563 -124.55859375 44.80078125 C-104.90093614 28.68823508 -81.90880524 15.58358722 -57.5 8.25 C-56.81615234 8.04181641 -56.13230469 7.83363281 -55.42773438 7.61914062 C-37.12488657 2.13953474 -19.06893462 -0.01855197 0 0 Z " fill="#AEF8F6" transform="translate(254.5,58.75)"/>
<path d="M0 0 C0.79464157 -0.00570007 1.58928314 -0.01140015 2.40800476 -0.01727295 C4.08977952 -0.02668942 5.77157246 -0.03324355 7.45336914 -0.03710938 C9.96600946 -0.04670052 12.4777896 -0.07770657 14.99023438 -0.109375 C29.31705766 -0.20426749 42.91253413 1.62604786 56.63671875 5.890625 C57.46461914 6.14553711 58.29251953 6.40044922 59.14550781 6.66308594 C98.41978651 19.17643625 130.38831368 46.80362177 149.62890625 83.09375 C151.98480339 87.67922272 153.99624872 92.33788096 155.69921875 97.203125 C120.29173046 134.06350414 72.37224686 158.27975826 20.59765625 159.37890625 C7.17934867 159.55776104 -6.05702465 159.5076274 -19.30078125 157.203125 C-20.05907227 157.07953613 -20.81736328 156.95594727 -21.59863281 156.82861328 C-64.77863885 149.66667018 -101.94141042 128.32572024 -132.30078125 97.203125 C-124.90780326 77.58758541 -113.64352688 61.39102375 -99.30078125 46.203125 C-98.56730469 45.40519531 -97.83382812 44.60726562 -97.078125 43.78515625 C-75.05561303 20.6596804 -45.28014239 7.2267063 -14.30078125 1.203125 C-13.38965576 1.02354248 -12.47853027 0.84395996 -11.53979492 0.65893555 C-7.68533023 0.11651559 -3.88427661 0.02210145 0 0 Z " fill="#12E3E9" transform="translate(244.30078125,293.796875)"/>
<path d="M0 0 C13.33273261 11.37785089 23.10893831 27.63976744 25.13085938 45.20288086 C25.28409398 47.99717358 25.33124549 50.76413524 25.3125 53.5625 C25.30750488 54.55733398 25.30250977 55.55216797 25.29736328 56.57714844 C24.83523757 76.41987016 16.5749238 91.6354721 2.8125 105.4375 C2.15378906 106.11941406 1.49507813 106.80132812 0.81640625 107.50390625 C-4.93598003 113.03361951 -11.95473509 116.27512227 -19.1875 119.4375 C-20.17234375 119.87578125 -21.1571875 120.3140625 -22.171875 120.765625 C-38.28999232 126.82057912 -58.11822888 124.76786459 -73.6015625 117.9296875 C-91.89541559 108.71849683 -103.26608261 94.89606753 -110.51171875 75.98046875 C-116.24163333 57.7452669 -114.53421023 38.62518309 -105.9375 21.6875 C-96.67230491 5.51266789 -84.07781345 -4.29267675 -67.1875 -11.5625 C-66.29804688 -11.94664063 -65.40859375 -12.33078125 -64.4921875 -12.7265625 C-43.14067296 -20.07258197 -17.54628226 -12.92446974 0 0 Z " fill="#12E3E9" transform="translate(300.1875,137.5625)"/>
<path d="M0 0 C0.66 0.33 1.32 0.66 2 1 C-6.25 9.25 -14.5 17.5 -23 26 C-23.66 25.67 -24.32 25.34 -25 25 C-17.00333285 16.24452502 -8.96402121 7.77491636 0 0 Z " fill="#38A2BD" transform="translate(107,80)"/>
</svg>
